<mxfile host="app.diagrams.net" agent="Mozilla/5.0 (Windows NT 10.0; Win64; x64) AppleWebKit/537.36 (KHTML, like Gecko) Chrome/139.0.0.0 Safari/537.36" version="28.1.0">
  <diagram name="Page-1" id="ZvU_w_BePWZHCAs6DRy4">
    <mxGraphModel dx="2564" dy="890" grid="1" gridSize="10" guides="1" tooltips="1" connect="1" arrows="1" fold="1" page="1" pageScale="1" pageWidth="827" pageHeight="1169" background="light-dark(#ffffff, #f3eded)" math="0" shadow="0" adaptiveColors="auto">
      <root>
        <mxCell id="0" />
        <mxCell id="1" parent="0" />
        <mxCell id="Z_i2O6QH_D2w4kZonYVk-2" value="AWS Cloud" style="outlineConnect=0;html=1;whiteSpace=wrap;fontSize=12;fontStyle=0;shape=mxgraph.aws4.group;grIcon=mxgraph.aws4.group_aws_cloud;fillColor=none;verticalAlign=top;align=left;spacingLeft=30;dashed=0;labelBackgroundColor=none;strokeColor=#E07A5F;fontColor=#393C56;rounded=0;" vertex="1" parent="1">
          <mxGeometry x="-240" y="260" width="1140" height="570" as="geometry" />
        </mxCell>
        <mxCell id="Z_i2O6QH_D2w4kZonYVk-10" style="edgeStyle=orthogonalEdgeStyle;rounded=0;orthogonalLoop=1;jettySize=auto;html=1;exitX=1;exitY=0.5;exitDx=0;exitDy=0;exitPerimeter=0;labelBackgroundColor=none;fontColor=default;strokeColor=#E07A5F;" edge="1" parent="1" source="Z_i2O6QH_D2w4kZonYVk-3" target="Z_i2O6QH_D2w4kZonYVk-4">
          <mxGeometry relative="1" as="geometry" />
        </mxCell>
        <mxCell id="Z_i2O6QH_D2w4kZonYVk-3" value="" style="outlineConnect=0;dashed=0;verticalLabelPosition=bottom;verticalAlign=top;align=center;html=1;shape=mxgraph.aws3.lambda_function;labelBackgroundColor=none;fillColor=#F2CC8F;strokeColor=#E07A5F;fontColor=#393C56;rounded=0;" vertex="1" parent="1">
          <mxGeometry x="-120" y="440" width="120" height="120" as="geometry" />
        </mxCell>
        <mxCell id="Z_i2O6QH_D2w4kZonYVk-11" style="edgeStyle=orthogonalEdgeStyle;rounded=0;orthogonalLoop=1;jettySize=auto;html=1;labelBackgroundColor=none;fontColor=default;strokeColor=#E07A5F;" edge="1" parent="1" source="Z_i2O6QH_D2w4kZonYVk-4" target="Z_i2O6QH_D2w4kZonYVk-5">
          <mxGeometry relative="1" as="geometry" />
        </mxCell>
        <mxCell id="Z_i2O6QH_D2w4kZonYVk-4" value="Amazon Polly" style="outlineConnect=0;dashed=0;verticalLabelPosition=middle;verticalAlign=bottom;align=center;html=1;whiteSpace=wrap;fontSize=10;fontStyle=1;spacing=3;shape=mxgraph.aws4.productIcon;prIcon=mxgraph.aws4.polly;labelBackgroundColor=none;fillColor=#F2CC8F;strokeColor=#E07A5F;fontColor=#393C56;rounded=0;" vertex="1" parent="1">
          <mxGeometry x="240" y="445" width="120" height="110" as="geometry" />
        </mxCell>
        <mxCell id="Z_i2O6QH_D2w4kZonYVk-5" value="Amazon S3" style="outlineConnect=0;dashed=0;verticalLabelPosition=middle;verticalAlign=bottom;align=center;html=1;whiteSpace=wrap;fontSize=10;fontStyle=1;spacing=3;shape=mxgraph.aws4.productIcon;prIcon=mxgraph.aws4.s3;labelBackgroundColor=none;fillColor=#F2CC8F;strokeColor=#E07A5F;fontColor=#393C56;rounded=0;" vertex="1" parent="1">
          <mxGeometry x="640" y="440" width="120" height="120" as="geometry" />
        </mxCell>
        <mxCell id="Z_i2O6QH_D2w4kZonYVk-9" style="edgeStyle=orthogonalEdgeStyle;rounded=0;orthogonalLoop=1;jettySize=auto;html=1;labelBackgroundColor=none;fontColor=default;strokeColor=#E07A5F;" edge="1" parent="1" source="Z_i2O6QH_D2w4kZonYVk-7" target="Z_i2O6QH_D2w4kZonYVk-3">
          <mxGeometry relative="1" as="geometry" />
        </mxCell>
        <mxCell id="Z_i2O6QH_D2w4kZonYVk-7" value="" style="html=1;verticalLabelPosition=bottom;align=center;labelBackgroundColor=none;verticalAlign=top;strokeWidth=2;shadow=0;dashed=0;shape=mxgraph.ios7.icons.book;fillColor=#F2CC8F;strokeColor=#E07A5F;fontColor=#393C56;rounded=0;" vertex="1" parent="1">
          <mxGeometry x="-550" y="460" width="120" height="80" as="geometry" />
        </mxCell>
        <mxCell id="Z_i2O6QH_D2w4kZonYVk-8" value="&lt;font style=&quot;font-size: 24px;&quot;&gt;Text&lt;/font&gt;" style="text;html=1;align=center;verticalAlign=middle;resizable=0;points=[];autosize=1;strokeColor=none;fillColor=none;labelBackgroundColor=none;fontColor=#393C56;rounded=0;" vertex="1" parent="1">
          <mxGeometry x="-525" y="573" width="70" height="40" as="geometry" />
        </mxCell>
        <mxCell id="Z_i2O6QH_D2w4kZonYVk-12" value="&lt;font style=&quot;font-size: 24px;&quot;&gt;Retrivers&amp;nbsp;&lt;/font&gt;&lt;div&gt;&lt;font style=&quot;font-size: 24px;&quot;&gt;text&lt;/font&gt;&lt;/div&gt;" style="text;html=1;align=center;verticalAlign=middle;resizable=0;points=[];autosize=1;strokeColor=none;fillColor=none;labelBackgroundColor=none;fontColor=#393C56;rounded=0;" vertex="1" parent="1">
          <mxGeometry x="-380" y="428" width="130" height="70" as="geometry" />
        </mxCell>
        <mxCell id="Z_i2O6QH_D2w4kZonYVk-13" value="&lt;span style=&quot;font-size: 24px;&quot;&gt;Lambda&lt;/span&gt;&lt;div&gt;&lt;span style=&quot;font-size: 24px;&quot;&gt;function&lt;/span&gt;&lt;/div&gt;" style="text;html=1;align=center;verticalAlign=middle;resizable=0;points=[];autosize=1;strokeColor=none;fillColor=none;labelBackgroundColor=none;fontColor=#393C56;rounded=0;" vertex="1" parent="1">
          <mxGeometry x="-115" y="573" width="110" height="70" as="geometry" />
        </mxCell>
        <mxCell id="Z_i2O6QH_D2w4kZonYVk-14" value="&lt;span style=&quot;font-size: 24px;&quot;&gt;Amazon&amp;nbsp;&lt;/span&gt;&lt;div&gt;&lt;span style=&quot;font-size: 24px;&quot;&gt;Polly&lt;/span&gt;&lt;/div&gt;" style="text;html=1;align=center;verticalAlign=middle;resizable=0;points=[];autosize=1;strokeColor=none;fillColor=none;labelBackgroundColor=none;fontColor=#393C56;rounded=0;" vertex="1" parent="1">
          <mxGeometry x="240" y="573" width="120" height="70" as="geometry" />
        </mxCell>
        <mxCell id="Z_i2O6QH_D2w4kZonYVk-20" style="edgeStyle=orthogonalEdgeStyle;rounded=0;orthogonalLoop=1;jettySize=auto;html=1;labelBackgroundColor=none;fontColor=default;strokeColor=#E07A5F;" edge="1" parent="1" source="Z_i2O6QH_D2w4kZonYVk-15" target="Z_i2O6QH_D2w4kZonYVk-18">
          <mxGeometry relative="1" as="geometry">
            <Array as="points">
              <mxPoint x="700" y="700" />
            </Array>
          </mxGeometry>
        </mxCell>
        <mxCell id="Z_i2O6QH_D2w4kZonYVk-15" value="&lt;span style=&quot;font-size: 24px;&quot;&gt;Simple Storage&lt;/span&gt;&lt;div&gt;&lt;span style=&quot;font-size: 24px;&quot;&gt;Service (S3)&lt;/span&gt;&lt;/div&gt;" style="text;html=1;align=center;verticalAlign=middle;resizable=0;points=[];autosize=1;strokeColor=none;fillColor=none;labelBackgroundColor=none;fontColor=#393C56;rounded=0;" vertex="1" parent="1">
          <mxGeometry x="605" y="573" width="190" height="70" as="geometry" />
        </mxCell>
        <mxCell id="Z_i2O6QH_D2w4kZonYVk-18" value="&lt;span style=&quot;font-size: 24px;&quot;&gt;Audio File&lt;/span&gt;&lt;div&gt;&lt;span style=&quot;font-size: 24px;&quot;&gt;Output&lt;/span&gt;&lt;/div&gt;" style="text;html=1;align=center;verticalAlign=middle;resizable=0;points=[];autosize=1;strokeColor=none;fillColor=none;labelBackgroundColor=none;fontColor=#393C56;rounded=0;" vertex="1" parent="1">
          <mxGeometry x="-560" y="680" width="130" height="70" as="geometry" />
        </mxCell>
      </root>
    </mxGraphModel>
  </diagram>
</mxfile>
